HIERARCHY
ROOT Hips
{
  OFFSET 76.347 92.6806 -49.6304
  CHANNELS 6 Xposition Yposition Zposition Zrotation Xrotation Yrotation
  JOINT RightUpLeg
  {
    OFFSET -9.2536 -1.56971 -0.009835
    CHANNELS 3 Zrotation Xrotation Yrotation
    JOINT RightLeg
    {
      OFFSET 0.003613 -41.8721 0.033096
      CHANNELS 3 Zrotation Xrotation Yrotation
      JOINT RightFoot
      {
        OFFSET 0.190023 -41.7536 -0.162077
        CHANNELS 3 Zrotation Xrotation Yrotation
        End Site
        {
          OFFSET 0 -7.69 17.5
        }
      }
    }
  }
  JOINT LeftUpLeg
  {
    OFFSET 9.25993 -1.60807 -0.003591
    CHANNELS 3 Zrotation Xrotation Yrotation
    JOINT LeftLeg
    {
      OFFSET 0.056181 -41.8768 -0.046918
      CHANNELS 3 Zrotation Xrotation Yrotation
      JOINT LeftFoot
      {
        OFFSET 0.206009 -42.0177 -0.454554
        CHANNELS 3 Zrotation Xrotation Yrotation
        End Site
        {
          OFFSET 0 -7.69 17.5
        }
      }
    }
  }
  JOINT Spine
  {
    OFFSET 0.055174 14.3087 0.014143
    CHANNELS 3 Zrotation Xrotation Yrotation
    JOINT Spine1
    {
      OFFSET 0.013927 9.70629 0.00545
      CHANNELS 3 Zrotation Xrotation Yrotation
      JOINT Spine2
      {
        OFFSET 0.014023 10.1242 0.014512
        CHANNELS 3 Zrotation Xrotation Yrotation
        JOINT Spine3
        {
          OFFSET 0.012086 9.7191 0.009001
          CHANNELS 3 Zrotation Xrotation Yrotation
          JOINT Neck
          {
            OFFSET 0.131707 10.3859 0.054297
            CHANNELS 3 Zrotation Xrotation Yrotation
            JOINT Head
            {
              OFFSET -0.005552 9.48088 0.122183
              CHANNELS 3 Zrotation Xrotation Yrotation
              End Site
              {
                OFFSET 0 15.95 0
              }
            }
          }
          JOINT RightShoulder
          {
            OFFSET -3.20137 6.92944 0.018295
            CHANNELS 3 Zrotation Xrotation Yrotation
            JOINT RightArm
            {
              OFFSET -12.7595 0.009634 0.00435
              CHANNELS 3 Zrotation Xrotation Yrotation
              JOINT RightForeArm
              {
                OFFSET -26.5076 -0.004773 -0.015002
                CHANNELS 3 Zrotation Xrotation Yrotation
                JOINT RightHand
                {
                  OFFSET -26.002 -5.9e-05 -0.011656
                  CHANNELS 3 Zrotation Xrotation Yrotation
                  JOINT RightHandThumb1
                  {
                    OFFSET -2.48905 0.190105 3.12053
                    CHANNELS 3 Zrotation Xrotation Yrotation
                    JOINT RightHandThumb2
                    {
                      OFFSET -3.68274 0 0
                      CHANNELS 3 Zrotation Xrotation Yrotation
                      JOINT RightHandThumb3
                      {
                        OFFSET -2.55832 0 0
                        CHANNELS 3 Zrotation Xrotation Yrotation
                        End Site
                        {
                          OFFSET -2.194 0 0
                        }
                      }
                    }
                  }
                  JOINT RightInHandIndex
                  {
                    OFFSET -3.22368 0.508421 1.97842
                    CHANNELS 3 Zrotation Xrotation Yrotation
                    JOINT RightHandIndex1
                    {
                      OFFSET -5.21684 -0.091368 0.999158
                      CHANNELS 3 Zrotation Xrotation Yrotation
                      JOINT RightHandIndex2
                      {
                        OFFSET -3.61937 0 0
                        CHANNELS 3 Zrotation Xrotation Yrotation
                        JOINT RightHandIndex3
                        {
                          OFFSET -2.0521 0 0
                          CHANNELS 3 Zrotation Xrotation Yrotation
                          End Site
                          {
                            OFFSET -1.805 0 0
                          }
                        }
                      }
                    }
                  }
                  JOINT RightInHandMiddle
                  {
                    OFFSET -3.38211 0.517263 0.756737
                    CHANNELS 3 Zrotation Xrotation Yrotation
                    JOINT RightHandMiddle1
                    {
                      OFFSET -5.17411 -0.084 0.313895
                      CHANNELS 3 Zrotation Xrotation Yrotation
                      JOINT RightHandMiddle2
                      {
                        OFFSET -3.94947 0 0
                        CHANNELS 3 Zrotation Xrotation Yrotation
                        JOINT RightHandMiddle3
                        {
                          OFFSET -2.47579 0 0
                          CHANNELS 3 Zrotation Xrotation Yrotation
                          End Site
                          {
                            OFFSET -1.975 0 0
                          }
                        }
                      }
                    }
                  }
                  JOINT RightInHandRing
                  {
                    OFFSET -3.36516 0.537895 -0.128947
                    CHANNELS 3 Zrotation Xrotation Yrotation
                    JOINT RightHandRing1
                    {
                      OFFSET -4.63474 -0.022105 -0.478947
                      CHANNELS 3 Zrotation Xrotation Yrotation
                      JOINT RightHandRing2
                      {
                        OFFSET -3.44238 0 0
                        CHANNELS 3 Zrotation Xrotation Yrotation
                        JOINT RightHandRing3
                        {
                          OFFSET -2.3881 0 0
                          CHANNELS 3 Zrotation Xrotation Yrotation
                          End Site
                          {
                            OFFSET -1.857 0 0
                          }
                        }
                      }
                    }
                  }
                  JOINT RightInHandPinky
                  {
                    OFFSET -3.16105 0.469368 -1.20179
                    CHANNELS 3 Zrotation Xrotation Yrotation
                    JOINT RightHandPinky1
                    {
                      OFFSET -4.14105 -0.022105 -1.09053
                      CHANNELS 3 Zrotation Xrotation Yrotation
                      JOINT RightHandPinky2
                      {
                        OFFSET -2.75653 0 0
                        CHANNELS 3 Zrotation Xrotation Yrotation
                        JOINT RightHandPinky3
                        {
                          OFFSET -1.74189 0 0
                          CHANNELS 3 Zrotation Xrotation Yrotation
                          End Site
                          {
                            OFFSET -1.645 0 0
                          }
                        }
                      }
                    }
                  }
                }
              }
            }
          }
          JOINT LeftShoulder
          {
            OFFSET 3.20143 6.91127 -0.000395
            CHANNELS 3 Zrotation Xrotation Yrotation
            JOINT LeftArm
            {
              OFFSET 12.7779 -0.028682 -0.037301
              CHANNELS 3 Zrotation Xrotation Yrotation
              JOINT LeftForeArm
              {
                OFFSET 26.4982 -0.116492 -0.017681
                CHANNELS 3 Zrotation Xrotation Yrotation
                JOINT LeftHand
                {
                  OFFSET 26.0046 -0.058588 -0.01331
                  CHANNELS 3 Zrotation Xrotation Yrotation
                  JOINT LeftHandThumb1
                  {
                    OFFSET 2.48905 0.190105 3.12053
                    CHANNELS 3 Zrotation Xrotation Yrotation
                    JOINT LeftHandThumb2
                    {
                      OFFSET 3.68274 0 0
                      CHANNELS 3 Zrotation Xrotation Yrotation
                      JOINT LeftHandThumb3
                      {
                        OFFSET 2.55832 0 0
                        CHANNELS 3 Zrotation Xrotation Yrotation
                        End Site
                        {
                          OFFSET 2.194 0 0
                        }
                      }
                    }
                  }
                  JOINT LeftInHandIndex
                  {
                    OFFSET 3.22368 0.508421 1.97842
                    CHANNELS 3 Zrotation Xrotation Yrotation
                    JOINT LeftHandIndex1
                    {
                      OFFSET 5.21684 -0.091368 0.999158
                      CHANNELS 3 Zrotation Xrotation Yrotation
                      JOINT LeftHandIndex2
                      {
                        OFFSET 3.61937 0 0
                        CHANNELS 3 Zrotation Xrotation Yrotation
                        JOINT LeftHandIndex3
                        {
                          OFFSET 2.0521 0 0
                          CHANNELS 3 Zrotation Xrotation Yrotation
                          End Site
                          {
                            OFFSET 1.805 0 0
                          }
                        }
                      }
                    }
                  }
                  JOINT LeftInHandMiddle
                  {
                    OFFSET 3.38211 0.517263 0.756737
                    CHANNELS 3 Zrotation Xrotation Yrotation
                    JOINT LeftHandMiddle1
                    {
                      OFFSET 5.17411 -0.084 0.313895
                      CHANNELS 3 Zrotation Xrotation Yrotation
                      JOINT LeftHandMiddle2
                      {
                        OFFSET 3.94947 0 0
                        CHANNELS 3 Zrotation Xrotation Yrotation
                        JOINT LeftHandMiddle3
                        {
                          OFFSET 2.47579 0 0
                          CHANNELS 3 Zrotation Xrotation Yrotation
                          End Site
                          {
                            OFFSET 1.975 0 0
                          }
                        }
                      }
                    }
                  }
                  JOINT LeftInHandRing
                  {
                    OFFSET 3.36516 0.537895 -0.128947
                    CHANNELS 3 Zrotation Xrotation Yrotation
                    JOINT LeftHandRing1
                    {
                      OFFSET 4.63474 -0.022105 -0.478947
                      CHANNELS 3 Zrotation Xrotation Yrotation
                      JOINT LeftHandRing2
                      {
                        OFFSET 3.44238 0 0
                        CHANNELS 3 Zrotation Xrotation Yrotation
                        JOINT LeftHandRing3
                        {
                          OFFSET 2.3881 0 0
                          CHANNELS 3 Zrotation Xrotation Yrotation
                          End Site
                          {
                            OFFSET 1.857 0 0
                          }
                        }
                      }
                    }
                  }
                  JOINT LeftInHandPinky
                  {
                    OFFSET 3.16105 0.469368 -1.20179
                    CHANNELS 3 Zrotation Xrotation Yrotation
                    JOINT LeftHandPinky1
                    {
                      OFFSET 4.14105 -0.022105 -1.09053
                      CHANNELS 3 Zrotation Xrotation Yrotation
                      JOINT LeftHandPinky2
                      {
                        OFFSET 2.75653 0 0
                        CHANNELS 3 Zrotation Xrotation Yrotation
                        JOINT LeftHandPinky3
                        {
                          OFFSET 1.74189 0 0
                          CHANNELS 3 Zrotation Xrotation Yrotation
                          End Site
                          {
                            OFFSET 1.645 0 0
                          }
                        }
                      }
                    }
                  }
                }
              }
            }
          }
        }
      }
    }
  }
}
MOTION
Frames: 3
Frame Time: 0.00833333
6.000226002202523432e+02 1.998148420008286075e-02 2.876465116056758226e-02 3.014409256599723252e-01 4.253521443315645967e-01 -9.567366244305450240e-02 -1.270553976049151601e-01 6.797513317148695666e-01 -6.961310736332647631e-01 6.854867965557731591e-02 -4.024150260928596179e-01 3.545729056596284012e-01 -1.988710921054027414e-01 1.528859605607590377e-01 -1.126859638468229313e-01 2.416661065392564367e-01 4.291396208056167949e-01 9.675187822222182099e-01 2.819336908477625969e-01 -5.711325267347971968e-01 -3.996934314882347183e-01 2.229678593730079206e-01 2.266679355742566293e-01 -3.972930233156941604e-01 -4.681776038617792290e-02 9.719928503534712716e-01 3.301311961770592163e-01 4.405781611253944269e-02 -5.746568571915532386e-01 -4.741704442402584069e-02 1.014438993664934507e-01 -4.504471909628364190e-01 -3.324190936928306944e-02 1.143377010026771189e-02 -1.350859635576521361e-02 1.888343524842954479e-02 1.053167847184046657e-01 -2.303787599429080735e-01 2.151960894895462717e-01 1.696076642553896729e-02 6.605485567769650568e-02 2.670111573324869814e-01 1.080279383494393841e-01 -7.763137097204238224e-02 4.224912707833027720e-02 -2.689806522328747618e-01 5.844092003883630954e-02 -9.564104728697289115e-01 -4.714816540638548759e+01 1.255627763802964036e+00 -4.684262233487559968e+01 -1.248614377883206839e+00 -7.142308746993511481e-02 -2.348590442279681334e-01 0.000000000000000000e+00 0.000000000000000000e+00 0.000000000000000000e+00 2.725360034689237090e-15 -7.894966523113773634e-16 0.000000000000000000e+00 6.526137211578132105e-16 -1.336070058233195748e-15 0.000000000000000000e+00 3.345344828664808309e-15 -7.977411189603893193e-16 -2.114123380740921344e-15 0.000000000000000000e+00 0.000000000000000000e+00 0.000000000000000000e+00 0.000000000000000000e+00 -5.676005392964868384e-16 5.529473304511072386e-15 0.000000000000000000e+00 -2.485549955919823586e-15 -5.407530795161539373e-15 3.345344828664808309e-15 -7.977411189603893193e-16 -2.114123380740921344e-15 0.000000000000000000e+00 1.060942649838802541e-15 4.365304736130791176e-15 0.000000000000000000e+00 1.447835889219244074e-15 6.640062654532620009e-15 0.000000000000000000e+00 -1.607622213806332878e-16 3.870695144855901984e-16 3.345344828664808309e-15 -7.977411189603893193e-16 -2.114123380740921344e-15 0.000000000000000000e+00 0.000000000000000000e+00 0.000000000000000000e+00 0.000000000000000000e+00 2.196514298209112624e-16 5.930587627880241239e-15 0.000000000000000000e+00 -2.024391250701774918e-15 -1.557851116740387353e-15 3.345344828664808309e-15 -7.977411189603893193e-16 -2.114123380740921344e-15 0.000000000000000000e+00 0.000000000000000000e+00 0.000000000000000000e+00 0.000000000000000000e+00 3.328920473163461286e-16 5.826013152031838667e-15 0.000000000000000000e+00 4.536484069255155723e-16 -5.242535843734224700e-15 1.937407965092328987e-01 -7.190159497984806303e-02 3.651539654923409151e-01 -1.682647454001625076e-01 3.928378463322438896e-01 1.520476747568856590e-02 -1.338370472198728400e+00 1.111550295476920969e+00 5.237469643611254444e-01 2.741485403028923074e+00 3.428480898696382617e+00 -3.188234728543753338e+00 0.000000000000000000e+00 0.000000000000000000e+00 0.000000000000000000e+00 7.645708327139524538e-15 5.475456500596473382e-16 0.000000000000000000e+00 3.810585050243685803e-15 -2.775361466652960535e-15 0.000000000000000000e+00 1.986480706069420231e-15 2.550588783847325634e-15 -1.500336092010752956e-15 0.000000000000000000e+00 0.000000000000000000e+00 0.000000000000000000e+00 0.000000000000000000e+00 2.564681273042825703e-17 4.430871307790213560e-15 0.000000000000000000e+00 -4.485569895120828103e-17 -9.585519416582609704e-16 1.986480706069420231e-15 2.550588783847325634e-15 -1.500336092010752956e-15 0.000000000000000000e+00 -1.634686311480626658e-15 -2.898874541057686044e-16 0.000000000000000000e+00 -1.473943242788265801e-15 4.331058585450558767e-15 0.000000000000000000e+00 6.988212184146805331e-16 6.246323449172008902e-16 1.986480706069420231e-15 2.550588783847325634e-15 -1.500336092010752956e-15 0.000000000000000000e+00 0.000000000000000000e+00 0.000000000000000000e+00 0.000000000000000000e+00 7.071063580710001353e-16 7.013917720850722397e-15 0.000000000000000000e+00 -6.616014098220064395e-16 6.417705861206684107e-15 1.986480706069420231e-15 2.550588783847325634e-15 -1.500336092010752956e-15 0.000000000000000000e+00 0.000000000000000000e+00 0.000000000000000000e+00 0.000000000000000000e+00 -4.304955920490358418e-17 8.783446504919634212e-15 0.000000000000000000e+00 1.760802997390378300e-15 1.141681284530282645e-15
6.000436004974191064e+02 1.458897105066137706e-02 7.662480235355757785e-02 3.193863737476242415e-01 3.573191638561947214e-01 9.726865653677400914e-02 -3.754730256932831134e-01 5.800023510603883325e-01 -9.397445894990295034e-01 4.811639952335398235e-02 -3.532249638514678436e-01 3.410978922097394617e-01 -1.780882686604773613e-01 1.218438852963891483e-01 -1.156970981694869227e-01 8.624897139338684460e-02 3.067175279402084009e-01 9.140769791344967032e-01 2.455405023365560269e-01 -6.297605070773646396e-01 -3.833029593325140150e-01 2.022418882502098891e-01 1.902216161901475744e-01 -5.518187506842892054e-01 -8.375006948198114587e-03 9.633834212135393704e-01 3.314072325953250631e-01 4.565567910507576516e-02 -4.458564823011859635e-01 -2.037387115120734352e-02 1.152962979832189844e-01 -5.155095346934724931e-01 -3.209188179582187633e-02 9.475583383322890019e-03 3.567091665288694459e-04 1.353774036158689707e-02 1.055488419215556140e-01 -8.933005305776564597e-02 9.222467437975871707e-02 2.762980514166358398e-02 7.551301149745326402e-02 1.464964220673034279e-01 9.093096301595503250e-02 -1.449143144744398648e-01 5.599921644184377434e-02 -4.884814796292573646e-01 -3.136552923202820531e-02 -8.918598604523431117e-01 -4.947240442329950838e+01 1.144610244101305518e+00 -4.948392328566670528e+01 -1.084643915217710086e+00 -8.538505679678948246e-02 -2.215453363221750460e-01 0.000000000000000000e+00 0.000000000000000000e+00 0.000000000000000000e+00 3.289522740267204302e-15 -5.955627791250096346e-16 0.000000000000000000e+00 2.040886026155395898e-15 -1.225612532191189895e-15 0.000000000000000000e+00 3.584189202188832351e-15 -6.647874240043654096e-16 -2.241996836057121264e-15 0.000000000000000000e+00 0.000000000000000000e+00 0.000000000000000000e+00 0.000000000000000000e+00 -2.707439542292329167e-16 6.057518384765073439e-15 0.000000000000000000e+00 -2.405030682910516736e-15 -6.010385779650794352e-15 3.584189202188832351e-15 -6.647874240043654096e-16 -2.241996836057121264e-15 0.000000000000000000e+00 1.174009521364052728e-15 4.178244466630998925e-15 0.000000000000000000e+00 1.846583986514642317e-15 7.333363874000459395e-15 0.000000000000000000e+00 -3.145307333156814082e-16 -6.028322047675242426e-16 3.584189202188832351e-15 -6.647874240043654096e-16 -2.241996836057121264e-15 0.000000000000000000e+00 0.000000000000000000e+00 0.000000000000000000e+00 0.000000000000000000e+00 1.289298012568747925e-16 5.706566890891396773e-15 0.000000000000000000e+00 -2.722395139944633708e-15 -2.853332231646883370e-15 3.584189202188832351e-15 -6.647874240043654096e-16 -2.241996836057121264e-15 0.000000000000000000e+00 0.000000000000000000e+00 0.000000000000000000e+00 0.000000000000000000e+00 3.904794686162704590e-16 5.480324977346441291e-15 0.000000000000000000e+00 2.926148446384790506e-16 -6.504340445142698053e-15 1.809264164910252548e-01 -4.675513750503938748e-02 2.961705914430056708e-01 -2.233752554999447471e-01 3.441864920671804384e-01 1.147193187807542397e-01 -1.182278466792668903e+00 8.830247792169665377e-01 5.214300943400383970e-01 1.811603556483799560e+00 3.469596140978536525e+00 -3.657773626379406728e+00 0.000000000000000000e+00 0.000000000000000000e+00 0.000000000000000000e+00 6.823984696421824008e-15 5.326041706524224371e-16 0.000000000000000000e+00 4.278991322885434181e-15 -3.020339653379379688e-15 0.000000000000000000e+00 2.261589337774479671e-15 3.143977975394176273e-15 -1.862083155395408937e-15 0.000000000000000000e+00 0.000000000000000000e+00 0.000000000000000000e+00 0.000000000000000000e+00 2.934091836227052313e-16 4.606655674496633956e-15 0.000000000000000000e+00 -3.677660879809268053e-16 6.599818425315087723e-16 2.261589337774479671e-15 3.143977975394176273e-15 -1.862083155395408937e-15 0.000000000000000000e+00 -1.443028031559153663e-15 -8.190898900603689452e-16 0.000000000000000000e+00 -8.747749160996042754e-16 4.750473685963368955e-15 0.000000000000000000e+00 7.702210884007756372e-16 1.300606292560629999e-15 2.261589337774479671e-15 3.143977975394176273e-15 -1.862083155395408937e-15 0.000000000000000000e+00 0.000000000000000000e+00 0.000000000000000000e+00 0.000000000000000000e+00 7.019187774611974092e-16 7.485718609518977013e-15 0.000000000000000000e+00 -8.441395440395310128e-16 6.532545191973415325e-15 2.261589337774479671e-15 3.143977975394176273e-15 -1.862083155395408937e-15 0.000000000000000000e+00 0.000000000000000000e+00 0.000000000000000000e+00 0.000000000000000000e+00 -3.973003960674186806e-16 9.587211927626645986e-15 0.000000000000000000e+00 2.414101592173887299e-15 1.529362771194339316e-15
6.000621911814155283e+02 9.721201222415699200e-03 1.157163966849986958e-01 3.337748603768248001e-01 2.949780930215902819e-01 2.604377311740519452e-01 -5.800712801064075164e-01 4.883923846715992889e-01 -1.140355293735170417e+00 2.851029150165006881e-02 -3.092272071485407392e-01 3.300445928510125637e-01 -1.593700154538995051e-01 9.440767952297253462e-02 -1.159843892114533204e-01 -4.702400235527139094e-02 1.991337357766676253e-01 8.565589557171728874e-01 2.128230839219279191e-01 -6.748738296799767777e-01 -3.673834564957813020e-01 1.773376039216508770e-01 1.599519860573138663e-01 -6.751782365836755950e-01 3.039314171263321832e-02 9.291936491449011015e-01 3.263123037118293990e-01 4.639356569152588289e-02 -3.114481636066969150e-01 6.610234636085546636e-03 1.264504217389074703e-01 -5.678929091483712055e-01 -2.980075567297385541e-02 7.619404073587710338e-03 1.275981197228481107e-02 8.629421622810619016e-03 1.047075374976704082e-01 3.422335203640660545e-02 -1.770339135889250487e-02 3.672123452144902822e-02 8.177273040686623695e-02 3.868734039139772735e-02 7.274582485516326025e-02 -2.033630646883804738e-01 5.978240285919629582e-02 -6.634996565631520182e-01 -1.231878875506827870e-01 -8.320594484606969043e-01 -5.048335796475085147e+01 1.024463019474595393e+00 -5.077618621555976119e+01 -9.286186973542128742e-01 -1.023651775474796050e-01 -1.934516752555411889e-01 0.000000000000000000e+00 0.000000000000000000e+00 0.000000000000000000e+00 3.902002289677201551e-15 -3.939125968497648337e-16 0.000000000000000000e+00 3.237433942258261771e-15 -1.039060011058872773e-15 0.000000000000000000e+00 3.760305480214310419e-15 -5.263872538407893722e-16 -2.335511497304447778e-15 0.000000000000000000e+00 0.000000000000000000e+00 0.000000000000000000e+00 0.000000000000000000e+00 -5.652490125133454015e-18 6.451629298920269912e-15 0.000000000000000000e+00 -2.292250794920730502e-15 -6.361964559688642625e-15 3.760305480214310419e-15 -5.263872538407893722e-16 -2.335511497304447778e-15 0.000000000000000000e+00 1.238104665921945774e-15 3.955230541564735662e-15 0.000000000000000000e+00 2.202982113251209924e-15 7.908256262973735354e-15 0.000000000000000000e+00 -4.333313774260140484e-16 -1.453175921773830288e-15 3.760305480214310419e-15 -5.263872538407893722e-16 -2.335511497304447778e-15 0.000000000000000000e+00 0.000000000000000000e+00 0.000000000000000000e+00 0.000000000000000000e+00 2.583659929114585476e-17 5.370593417074636086e-15 0.000000000000000000e+00 -3.342938796154250690e-15 -3.981050062266441815e-15 3.760305480214310419e-15 -5.263872538407893722e-16 -2.335511497304447778e-15 0.000000000000000000e+00 0.000000000000000000e+00 0.000000000000000000e+00 0.000000000000000000e+00 4.773590371819018053e-16 5.117978735224040265e-15 0.000000000000000000e+00 1.132999114330974543e-16 -7.513455388758555846e-15 1.679812667295301210e-01 -2.395138799427352222e-02 2.332870836182097118e-01 -2.571874206215963854e-01 2.971175724540987551e-01 1.869845215682572337e-01 -1.023982189773089191e+00 6.954382001076951925e-01 5.065127887698303022e-01 9.673979533420102861e-01 3.507543565331638025e+00 -4.019585791840541766e+00 0.000000000000000000e+00 0.000000000000000000e+00 0.000000000000000000e+00 5.997396908601719348e-15 5.137002240903904280e-16 0.000000000000000000e+00 4.643630538593743403e-15 -3.209611700258668471e-15 0.000000000000000000e+00 2.517716318783400656e-15 3.669126417483570373e-15 -2.177724750993000897e-15 0.000000000000000000e+00 0.000000000000000000e+00 0.000000000000000000e+00 0.000000000000000000e+00 5.638110211159920550e-16 4.745442158600389237e-15 0.000000000000000000e+00 -6.582517865160516934e-16 2.070246312726739074e-15 2.517716318783400656e-15 3.669126417483570373e-15 -2.177724750993000897e-15 0.000000000000000000e+00 -1.256143064383112721e-15 -1.250704166944201767e-15 0.000000000000000000e+00 -2.930165165205066785e-16 5.122653232849096524e-15 0.000000000000000000e+00 8.204161335141980699e-16 1.847148919297858422e-15 2.517716318783400656e-15 3.669126417483570373e-15 -2.177724750993000897e-15 0.000000000000000000e+00 0.000000000000000000e+00 0.000000000000000000e+00 0.000000000000000000e+00 7.015472027177751518e-16 7.858859421947479233e-15 0.000000000000000000e+00 -9.990617717376351416e-16 6.535596143195699828e-15 2.517716318783400656e-15 3.669126417483570373e-15 -2.177724750993000897e-15 0.000000000000000000e+00 0.000000000000000000e+00 0.000000000000000000e+00 0.000000000000000000e+00 -7.324159104845587223e-16 1.025413572087423044e-14 0.000000000000000000e+00 2.998462110713940645e-15 1.867788491101881505e-15
